<svg width="314" height="165" viewBox="0 0 314 165" fill="none" xmlns="http://www.w3.org/2000/svg">
<path d="M92.9699 46C92.2019 46 91.6419 45.84 91.2899 45.52C90.9699 45.168 90.8099 44.64 90.8099 43.936V15.424C90.8099 14.72 90.9699 14.208 91.2899 13.888C91.6419 13.536 92.2179 13.36 93.0179 13.36H96.5699C97.1459 13.36 97.5939 13.44 97.9139 13.6C98.2339 13.728 98.4899 14 98.6819 14.416L106.986 34L115.338 14.416C115.53 14 115.786 13.728 116.106 13.6C116.426 13.44 116.874 13.36 117.45 13.36H121.002C121.802 13.36 122.362 13.536 122.682 13.888C123.034 14.208 123.21 14.72 123.21 15.424V43.936C123.21 44.64 123.034 45.168 122.682 45.52C122.362 45.84 121.818 46 121.05 46H118.122C117.322 46 116.746 45.84 116.394 45.52C116.074 45.168 115.914 44.64 115.914 43.936V25.792L109.482 40.144C109.162 40.816 108.842 41.296 108.522 41.584C108.234 41.84 107.722 41.968 106.986 41.968C106.282 41.968 105.754 41.84 105.402 41.584C105.082 41.296 104.778 40.816 104.49 40.144L98.1059 25.792V43.936C98.1059 44.64 97.9299 45.168 97.5779 45.52C97.2579 45.84 96.6979 46 95.8979 46H92.9699ZM141.267 46.72C135.827 46.72 131.667 45.232 128.787 42.256C125.939 39.28 124.515 35.088 124.515 29.68C124.515 24.272 125.939 20.08 128.787 17.104C131.667 14.128 135.827 12.64 141.267 12.64C146.675 12.64 150.803 14.128 153.651 17.104C156.531 20.08 157.971 24.272 157.971 29.68C157.971 35.088 156.531 39.28 153.651 42.256C150.803 45.232 146.675 46.72 141.267 46.72ZM141.267 41.008C144.179 41.008 146.371 40.064 147.843 38.176C149.347 36.256 150.099 33.424 150.099 29.68C150.099 25.936 149.347 23.12 147.843 21.232C146.371 19.312 144.179 18.352 141.267 18.352C138.323 18.352 136.099 19.312 134.595 21.232C133.123 23.12 132.387 25.936 132.387 29.68C132.387 33.424 133.123 36.256 134.595 38.176C136.099 40.064 138.323 41.008 141.267 41.008ZM175.51 46.72C170.07 46.72 165.91 45.232 163.03 42.256C160.182 39.28 158.758 35.088 158.758 29.68C158.758 24.272 160.182 20.08 163.03 17.104C165.91 14.128 170.07 12.64 175.51 12.64C180.918 12.64 185.046 14.128 187.894 17.104C190.774 20.08 192.214 24.272 192.214 29.68C192.214 35.088 190.774 39.28 187.894 42.256C185.046 45.232 180.918 46.72 175.51 46.72ZM175.51 41.008C178.422 41.008 180.614 40.064 182.086 38.176C183.59 36.256 184.342 33.424 184.342 29.68C184.342 25.936 183.59 23.12 182.086 21.232C180.614 19.312 178.422 18.352 175.51 18.352C172.566 18.352 170.342 19.312 168.838 21.232C167.366 23.12 166.63 25.936 166.63 29.68C166.63 33.424 167.366 36.256 168.838 38.176C170.342 40.064 172.566 41.008 175.51 41.008ZM197.34 46C196.572 46 196.012 45.84 195.66 45.52C195.34 45.168 195.18 44.64 195.18 43.936V15.472C195.18 14.768 195.34 14.24 195.66 13.888C196.012 13.536 196.572 13.36 197.34 13.36H207.42C212.892 13.36 217.052 14.672 219.9 17.296C222.748 19.92 224.172 24.048 224.172 29.68C224.172 35.248 222.732 39.36 219.852 42.016C216.972 44.672 212.828 46 207.42 46H197.34ZM207.804 40.192C210.652 40.192 212.78 39.408 214.188 37.84C215.596 36.24 216.3 33.52 216.3 29.68C216.3 25.84 215.596 23.136 214.188 21.568C212.78 20 210.652 19.216 207.804 19.216H203.1V40.192H207.804ZM66.7071 102C65.9071 102 65.3311 101.84 64.9791 101.52C64.6591 101.168 64.4991 100.64 64.4991 99.936V75.216H56.6271C55.8591 75.216 55.3311 75.072 55.0431 74.784C54.7551 74.464 54.6111 73.936 54.6111 73.2V71.424C54.6111 70.688 54.7551 70.16 55.0431 69.84C55.3311 69.52 55.8591 69.36 56.6271 69.36H80.3391C81.1071 69.36 81.6351 69.52 81.9231 69.84C82.2431 70.16 82.4031 70.688 82.4031 71.424V73.2C82.4031 73.904 82.2431 74.416 81.9231 74.736C81.6351 75.056 81.1071 75.216 80.3391 75.216H72.4671V99.936C72.4671 100.64 72.2911 101.168 71.9391 101.52C71.6191 101.84 71.0591 102 70.2591 102H66.7071ZM86.5592 102C85.7912 102 85.2312 101.84 84.8792 101.52C84.5592 101.168 84.3992 100.64 84.3992 99.936V71.472C84.3992 70.768 84.5592 70.24 84.8792 69.888C85.2312 69.536 85.7912 69.36 86.5592 69.36H98.7032C106.831 69.36 110.895 72.912 110.895 80.016C110.895 82.288 110.415 84.224 109.455 85.824C108.495 87.392 107.071 88.592 105.183 89.424L110.223 100.464C110.319 100.688 110.367 100.912 110.367 101.136C110.367 101.712 110.031 102 109.359 102H104.031C103.583 102 103.247 101.952 103.023 101.856C102.799 101.728 102.607 101.472 102.447 101.088L98.0312 90.528H92.3192V99.936C92.3192 100.64 92.1592 101.168 91.8392 101.52C91.5192 101.84 90.9592 102 90.1592 102H86.5592ZM97.5512 84.816C99.3752 84.816 100.735 84.432 101.631 83.664C102.559 82.896 103.023 81.68 103.023 80.016C103.023 78.352 102.607 77.136 101.775 76.368C100.943 75.6 99.6952 75.216 98.0312 75.216H92.3192V84.816H97.5512ZM111.657 102C111.081 102 110.793 101.728 110.793 101.184C110.793 100.96 110.841 100.704 110.937 100.416L123.369 70.8C123.593 70.256 123.833 69.888 124.089 69.696C124.377 69.472 124.777 69.36 125.289 69.36H128.793C129.305 69.36 129.689 69.472 129.945 69.696C130.201 69.888 130.441 70.256 130.665 70.8L143.097 100.416C143.193 100.704 143.241 100.96 143.241 101.184C143.241 101.728 142.953 102 142.377 102H136.569C136.121 102 135.785 101.936 135.561 101.808C135.369 101.648 135.193 101.376 135.033 100.992L132.825 95.328H121.161L119.001 100.992C118.841 101.376 118.649 101.648 118.425 101.808C118.233 101.936 117.913 102 117.465 102H111.657ZM131.001 89.808L127.017 79.44L122.985 89.808H131.001ZM160.211 102.72C154.643 102.72 150.323 101.264 147.251 98.352C144.211 95.408 142.691 91.184 142.691 85.68C142.691 80.144 144.179 75.92 147.155 73.008C150.163 70.096 154.451 68.64 160.019 68.64C162.355 68.64 164.467 68.88 166.355 69.36C168.275 69.808 169.891 70.464 171.203 71.328C171.523 71.552 171.683 71.808 171.683 72.096C171.683 72.352 171.587 72.624 171.395 72.912L169.715 75.84C169.491 76.192 169.267 76.368 169.043 76.368C168.851 76.368 168.579 76.272 168.227 76.08C166.179 74.928 163.763 74.352 160.979 74.352C157.683 74.352 155.123 75.312 153.299 77.232C151.475 79.12 150.563 81.936 150.563 85.68C150.563 89.456 151.507 92.288 153.395 94.176C155.315 96.064 157.923 97.008 161.219 97.008C164.227 97.008 166.755 96.432 168.803 95.28C169.155 95.088 169.427 94.992 169.619 94.992C169.843 94.992 170.067 95.168 170.291 95.52L172.163 98.736C172.291 98.96 172.355 99.152 172.355 99.312C172.355 99.504 172.163 99.744 171.779 100.032C169.283 101.824 165.427 102.72 160.211 102.72ZM201.958 100.416C202.15 100.64 202.246 100.896 202.246 101.184C202.246 101.728 201.958 102 201.382 102H195.382C194.998 102 194.694 101.968 194.47 101.904C194.278 101.808 194.086 101.648 193.894 101.424L183.286 87.504L183.142 87.312V99.936C183.142 100.64 182.982 101.168 182.662 101.52C182.342 101.84 181.782 102 180.982 102H177.382C176.614 102 176.054 101.84 175.702 101.52C175.382 101.168 175.222 100.64 175.222 99.936V71.472C175.222 70.768 175.382 70.24 175.702 69.888C176.054 69.536 176.614 69.36 177.382 69.36H180.982C181.782 69.36 182.342 69.536 182.662 69.888C182.982 70.208 183.142 70.736 183.142 71.472V83.856L183.286 83.664L193.558 69.984C193.75 69.728 193.942 69.568 194.134 69.504C194.358 69.408 194.694 69.36 195.142 69.36H201.046C201.622 69.36 201.91 69.632 201.91 70.176C201.91 70.432 201.814 70.688 201.622 70.944L190.246 85.584L201.958 100.416ZM207.5 102C206.732 102 206.172 101.84 205.82 101.52C205.5 101.168 205.34 100.64 205.34 99.936V71.472C205.34 70.768 205.5 70.24 205.82 69.888C206.172 69.536 206.732 69.36 207.5 69.36H227.42C228.188 69.36 228.716 69.52 229.004 69.84C229.292 70.128 229.436 70.64 229.436 71.376V73.152C229.436 73.888 229.292 74.416 229.004 74.736C228.716 75.056 228.188 75.216 227.42 75.216H213.26V82.8H223.148C223.916 82.8 224.444 82.96 224.732 83.28C225.02 83.568 225.164 84.08 225.164 84.816V86.496C225.164 87.232 225.02 87.76 224.732 88.08C224.444 88.4 223.916 88.56 223.148 88.56H213.26V96.192H227.372C228.14 96.192 228.668 96.352 228.956 96.672C229.244 96.992 229.388 97.52 229.388 98.256V99.984C229.388 100.72 229.244 101.248 228.956 101.568C228.668 101.856 228.14 102 227.372 102H207.5ZM234.103 102C233.335 102 232.775 101.84 232.423 101.52C232.103 101.168 231.943 100.64 231.943 99.936V71.472C231.943 70.768 232.103 70.24 232.423 69.888C232.775 69.536 233.335 69.36 234.103 69.36H246.247C254.375 69.36 258.439 72.912 258.439 80.016C258.439 82.288 257.959 84.224 256.999 85.824C256.039 87.392 254.615 88.592 252.727 89.424L257.767 100.464C257.863 100.688 257.911 100.912 257.911 101.136C257.911 101.712 257.575 102 256.903 102H251.575C251.127 102 250.791 101.952 250.567 101.856C250.343 101.728 250.151 101.472 249.991 101.088L245.575 90.528H239.863V99.936C239.863 100.64 239.703 101.168 239.383 101.52C239.063 101.84 238.503 102 237.703 102H234.103ZM245.095 84.816C246.919 84.816 248.279 84.432 249.175 83.664C250.103 82.896 250.567 81.68 250.567 80.016C250.567 78.352 250.151 77.136 249.319 76.368C248.487 75.6 247.239 75.216 245.575 75.216H239.863V84.816H245.095Z" fill="#141416"/>
<rect x="46" y="126" width="39" height="39" rx="19.5" fill="#FFBF2D"/>
<rect x="107" y="126" width="39" height="39" rx="19.5" fill="#46D691"/>
<rect x="168" y="126" width="39" height="39" rx="19.5" fill="#7690FE"/>
<rect x="229" y="126" width="39" height="39" rx="19.5" fill="#F9404E"/>
</svg>
